<svg xmlns="http://www.w3.org/2000/svg" width="170mm" height="67mm" viewBox="0 0 1700 670">
<rect width="1700" height="670" fill="white"/>
<g font-family="Arial, Helvetica, DejaVu Sans, sans-serif">
<text x="45.00" y="48.00" text-anchor="start" font-size="34" font-weight="bold" fill="#222222">a)</text>
<text x="330.00" y="59.00" text-anchor="middle" font-size="26" font-weight="normal" fill="#222222">Score noise and topology</text>
<line x1="130.00" y1="545.00" x2="590.00" y2="545.00" stroke="#263746" stroke-width="2.2" opacity="1.0"/>
<line x1="130.00" y1="115.00" x2="130.00" y2="545.00" stroke="#263746" stroke-width="2.2" opacity="1.0"/>
<line x1="130.00" y1="545.00" x2="130.00" y2="554.00" stroke="#263746" stroke-width="1.8" opacity="1.0"/>
<text x="130.00" y="576.00" text-anchor="middle" font-size="20" font-weight="normal" fill="#222222">0</text>
<line x1="187.50" y1="545.00" x2="187.50" y2="554.00" stroke="#263746" stroke-width="1.8" opacity="1.0"/>
<text x="187.50" y="576.00" text-anchor="middle" font-size="20" font-weight="normal" fill="#222222">0.5</text>
<line x1="245.00" y1="545.00" x2="245.00" y2="554.00" stroke="#263746" stroke-width="1.8" opacity="1.0"/>
<text x="245.00" y="576.00" text-anchor="middle" font-size="20" font-weight="normal" fill="#222222">1</text>
<line x1="360.00" y1="545.00" x2="360.00" y2="554.00" stroke="#263746" stroke-width="1.8" opacity="1.0"/>
<text x="360.00" y="576.00" text-anchor="middle" font-size="20" font-weight="normal" fill="#222222">2</text>
<line x1="590.00" y1="545.00" x2="590.00" y2="554.00" stroke="#263746" stroke-width="1.8" opacity="1.0"/>
<text x="590.00" y="576.00" text-anchor="middle" font-size="20" font-weight="normal" fill="#222222">4</text>
<line x1="121.00" y1="520.07" x2="130.00" y2="520.07" stroke="#263746" stroke-width="1.8" opacity="1.0"/>
<text x="114.00" y="527.07" text-anchor="end" font-size="20" font-weight="normal" fill="#222222">-1</text>
<line x1="121.00" y1="457.75" x2="130.00" y2="457.75" stroke="#263746" stroke-width="1.8" opacity="1.0"/>
<text x="114.00" y="464.75" text-anchor="end" font-size="20" font-weight="normal" fill="#222222">0</text>
<line x1="121.00" y1="395.43" x2="130.00" y2="395.43" stroke="#263746" stroke-width="1.8" opacity="1.0"/>
<text x="114.00" y="402.43" text-anchor="end" font-size="20" font-weight="normal" fill="#222222">1</text>
<line x1="121.00" y1="333.12" x2="130.00" y2="333.12" stroke="#263746" stroke-width="1.8" opacity="1.0"/>
<text x="114.00" y="340.12" text-anchor="end" font-size="20" font-weight="normal" fill="#222222">2</text>
<line x1="121.00" y1="270.80" x2="130.00" y2="270.80" stroke="#263746" stroke-width="1.8" opacity="1.0"/>
<text x="114.00" y="277.80" text-anchor="end" font-size="20" font-weight="normal" fill="#222222">3</text>
<line x1="121.00" y1="208.48" x2="130.00" y2="208.48" stroke="#263746" stroke-width="1.8" opacity="1.0"/>
<text x="114.00" y="215.48" text-anchor="end" font-size="20" font-weight="normal" fill="#222222">4</text>
<line x1="121.00" y1="146.16" x2="130.00" y2="146.16" stroke="#263746" stroke-width="1.8" opacity="1.0"/>
<text x="114.00" y="153.16" text-anchor="end" font-size="20" font-weight="normal" fill="#222222">5</text>
<text x="360.00" y="612.00" text-anchor="middle" font-size="22" font-weight="normal" fill="#222222">Locking-score noise ratio</text>
<text x="53.00" y="330.00" text-anchor="middle" font-size="22" font-weight="normal" fill="#222222" transform="rotate(-90 53.0 330.0)">Current - highest oracle regret (0.001 units)</text>
<line x1="130.00" y1="457.75" x2="590.00" y2="457.75" stroke="#555555" stroke-width="1.8" opacity="1.0"/>
<polygon points="130.00,372.59 158.75,421.69 187.50,478.48 245.00,482.89 360.00,470.37 590.00,460.83 590.00,465.91 360.00,482.05 245.00,504.91 187.50,512.61 158.75,462.68 130.00,426.35" fill="#0072B2" opacity="0.10" stroke="none"/>
<polyline points="130.00,401.47 158.75,446.79 187.50,492.43 245.00,498.29 360.00,475.35 590.00,463.22" stroke="#0072B2" stroke-width="3.2" fill="none" opacity="1.0" stroke-linejoin="round" stroke-linecap="round"/>
<circle cx="130.00" cy="401.47" r="6.5" stroke="#0072B2" stroke-width="2.4" fill="#0072B2"/>
<circle cx="158.75" cy="446.79" r="6.5" stroke="#0072B2" stroke-width="2.4" fill="#0072B2"/>
<circle cx="187.50" cy="492.43" r="6.5" stroke="#0072B2" stroke-width="2.4" fill="#0072B2"/>
<circle cx="245.00" cy="498.29" r="6.5" stroke="#0072B2" stroke-width="2.4" fill="#0072B2"/>
<circle cx="360.00" cy="475.35" r="6.5" stroke="#0072B2" stroke-width="2.4" fill="#0072B2"/>
<circle cx="590.00" cy="463.22" r="6.5" stroke="#0072B2" stroke-width="2.4" fill="#0072B2"/>
<polygon points="130.00,377.29 158.75,414.99 187.50,474.09 245.00,479.16 360.00,468.71 590.00,461.34 590.00,463.42 360.00,480.59 245.00,499.00 187.50,503.36 158.75,472.23 130.00,438.29" fill="#009E73" opacity="0.10" stroke="none"/>
<polyline points="130.00,398.61 158.75,441.19 187.50,485.40 245.00,493.33 360.00,473.37 590.00,462.50" stroke="#009E73" stroke-width="3.2" fill="none" opacity="1.0" stroke-linejoin="round" stroke-linecap="round"/>
<circle cx="130.00" cy="398.61" r="6.5" stroke="#009E73" stroke-width="2.4" fill="#009E73"/>
<circle cx="158.75" cy="441.19" r="6.5" stroke="#009E73" stroke-width="2.4" fill="#009E73"/>
<circle cx="187.50" cy="485.40" r="6.5" stroke="#009E73" stroke-width="2.4" fill="#009E73"/>
<circle cx="245.00" cy="493.33" r="6.5" stroke="#009E73" stroke-width="2.4" fill="#009E73"/>
<circle cx="360.00" cy="473.37" r="6.5" stroke="#009E73" stroke-width="2.4" fill="#009E73"/>
<circle cx="590.00" cy="462.50" r="6.5" stroke="#009E73" stroke-width="2.4" fill="#009E73"/>
<polygon points="130.00,214.08 158.75,255.03 187.50,340.97 245.00,424.17 360.00,451.10 590.00,456.69 590.00,459.53 360.00,462.78 245.00,460.57 187.50,410.69 158.75,343.03 130.00,305.16" fill="#D55E00" opacity="0.10" stroke="none"/>
<polyline points="130.00,251.44 158.75,296.50 187.50,380.36 245.00,444.73 360.00,458.55 590.00,458.44" stroke="#D55E00" stroke-width="3.2" fill="none" opacity="1.0" stroke-linejoin="round" stroke-linecap="round"/>
<circle cx="130.00" cy="251.44" r="6.5" stroke="#D55E00" stroke-width="2.4" fill="#D55E00"/>
<circle cx="158.75" cy="296.50" r="6.5" stroke="#D55E00" stroke-width="2.4" fill="#D55E00"/>
<circle cx="187.50" cy="380.36" r="6.5" stroke="#D55E00" stroke-width="2.4" fill="#D55E00"/>
<circle cx="245.00" cy="444.73" r="6.5" stroke="#D55E00" stroke-width="2.4" fill="#D55E00"/>
<circle cx="360.00" cy="458.55" r="6.5" stroke="#D55E00" stroke-width="2.4" fill="#D55E00"/>
<circle cx="590.00" cy="458.44" r="6.5" stroke="#D55E00" stroke-width="2.4" fill="#D55E00"/>
<line x1="164.00" y1="90.00" x2="192.00" y2="90.00" stroke="#0072B2" stroke-width="3" opacity="1.0"/>
<circle cx="178.00" cy="90.00" r="5.5" stroke="#0072B2" stroke-width="2.4" fill="#0072B2"/>
<text x="201.00" y="97.00" text-anchor="start" font-size="18" font-weight="normal" fill="#222222">Aligned</text>
<line x1="302.00" y1="90.00" x2="330.00" y2="90.00" stroke="#009E73" stroke-width="3" opacity="1.0"/>
<circle cx="316.00" cy="90.00" r="5.5" stroke="#009E73" stroke-width="2.4" fill="#009E73"/>
<text x="339.00" y="97.00" text-anchor="start" font-size="18" font-weight="normal" fill="#222222">Competing</text>
<line x1="445.00" y1="90.00" x2="473.00" y2="90.00" stroke="#D55E00" stroke-width="3" opacity="1.0"/>
<circle cx="459.00" cy="90.00" r="5.5" stroke="#D55E00" stroke-width="2.4" fill="#D55E00"/>
<text x="482.00" y="97.00" text-anchor="start" font-size="18" font-weight="normal" fill="#222222">Misleading</text>
<text x="630.00" y="48.00" text-anchor="start" font-size="34" font-weight="bold" fill="#222222">b)</text>
<text x="844.00" y="59.00" text-anchor="middle" font-size="26" font-weight="normal" fill="#222222">Tolerance trade-off</text>
<line x1="720.00" y1="545.00" x2="1040.00" y2="545.00" stroke="#263746" stroke-width="2.2" opacity="1.0"/>
<line x1="720.00" y1="115.00" x2="720.00" y2="545.00" stroke="#263746" stroke-width="2.2" opacity="1.0"/>
<line x1="731.96" y1="545.00" x2="731.96" y2="554.00" stroke="#263746" stroke-width="1.8" opacity="1.0"/>
<text x="731.96" y="576.00" text-anchor="middle" font-size="20" font-weight="normal" fill="#222222">0</text>
<line x1="791.78" y1="545.00" x2="791.78" y2="554.00" stroke="#263746" stroke-width="1.8" opacity="1.0"/>
<text x="791.78" y="576.00" text-anchor="middle" font-size="20" font-weight="normal" fill="#222222">1</text>
<line x1="851.59" y1="545.00" x2="851.59" y2="554.00" stroke="#263746" stroke-width="1.8" opacity="1.0"/>
<text x="851.59" y="576.00" text-anchor="middle" font-size="20" font-weight="normal" fill="#222222">2</text>
<line x1="911.40" y1="545.00" x2="911.40" y2="554.00" stroke="#263746" stroke-width="1.8" opacity="1.0"/>
<text x="911.40" y="576.00" text-anchor="middle" font-size="20" font-weight="normal" fill="#222222">3</text>
<line x1="971.21" y1="545.00" x2="971.21" y2="554.00" stroke="#263746" stroke-width="1.8" opacity="1.0"/>
<text x="971.21" y="576.00" text-anchor="middle" font-size="20" font-weight="normal" fill="#222222">4</text>
<line x1="1031.03" y1="545.00" x2="1031.03" y2="554.00" stroke="#263746" stroke-width="1.8" opacity="1.0"/>
<text x="1031.03" y="576.00" text-anchor="middle" font-size="20" font-weight="normal" fill="#222222">5</text>
<line x1="711.00" y1="491.80" x2="720.00" y2="491.80" stroke="#263746" stroke-width="1.8" opacity="1.0"/>
<text x="704.00" y="498.80" text-anchor="end" font-size="20" font-weight="normal" fill="#222222">0.42</text>
<line x1="711.00" y1="403.14" x2="720.00" y2="403.14" stroke="#263746" stroke-width="1.8" opacity="1.0"/>
<text x="704.00" y="410.14" text-anchor="end" font-size="20" font-weight="normal" fill="#222222">0.43</text>
<line x1="711.00" y1="314.48" x2="720.00" y2="314.48" stroke="#263746" stroke-width="1.8" opacity="1.0"/>
<text x="704.00" y="321.48" text-anchor="end" font-size="20" font-weight="normal" fill="#222222">0.44</text>
<line x1="711.00" y1="225.82" x2="720.00" y2="225.82" stroke="#263746" stroke-width="1.8" opacity="1.0"/>
<text x="704.00" y="232.82" text-anchor="end" font-size="20" font-weight="normal" fill="#222222">0.45</text>
<line x1="711.00" y1="137.16" x2="720.00" y2="137.16" stroke="#263746" stroke-width="1.8" opacity="1.0"/>
<text x="704.00" y="144.16" text-anchor="end" font-size="20" font-weight="normal" fill="#222222">0.46</text>
<text x="880.00" y="612.00" text-anchor="middle" font-size="22" font-weight="normal" fill="#222222">Mean empirical regret (0.001 units)</text>
<text x="643.00" y="330.00" text-anchor="middle" font-size="22" font-weight="normal" fill="#222222" transform="rotate(-90 643.0 330.0)">Mean full-bank Jaccard</text>
<polyline points="731.96,503.16 748.93,437.13 819.88,321.28 1010.06,164.61" stroke="#2F5D7C" stroke-width="3.4" fill="none" opacity="1.0" stroke-linejoin="round" stroke-linecap="round"/>
<circle cx="731.96" cy="503.16" r="7.0" stroke="#2F5D7C" stroke-width="2.4" fill="#2F5D7C"/>
<text x="741.96" y="526.16" text-anchor="start" font-size="18" font-weight="normal" fill="#222222">delta=0</text>
<circle cx="748.93" cy="437.13" r="7.0" stroke="#2F5D7C" stroke-width="2.4" fill="#2F5D7C"/>
<text x="758.93" y="424.13" text-anchor="start" font-size="18" font-weight="normal" fill="#222222">delta=0.005</text>
<circle cx="819.88" cy="321.28" r="7.0" stroke="#2F5D7C" stroke-width="2.4" fill="#2F5D7C"/>
<text x="829.88" y="309.28" text-anchor="start" font-size="18" font-weight="normal" fill="#222222">delta=0.01</text>
<circle cx="1010.06" cy="164.61" r="7.0" stroke="#2F5D7C" stroke-width="2.4" fill="#2F5D7C"/>
<text x="1002.06" y="149.61" text-anchor="end" font-size="18" font-weight="normal" fill="#222222">delta=0.02</text>
<text x="1080.00" y="48.00" text-anchor="start" font-size="34" font-weight="bold" fill="#222222">c)</text>
<text x="1400.00" y="59.00" text-anchor="middle" font-size="26" font-weight="normal" fill="#222222">Candidate-bank size</text>
<line x1="1190.00" y1="545.00" x2="1665.00" y2="545.00" stroke="#263746" stroke-width="2.2" opacity="1.0"/>
<line x1="1190.00" y1="115.00" x2="1190.00" y2="545.00" stroke="#263746" stroke-width="2.2" opacity="1.0"/>
<line x1="1190.00" y1="545.00" x2="1190.00" y2="554.00" stroke="#263746" stroke-width="1.8" opacity="1.0"/>
<text x="1190.00" y="576.00" text-anchor="middle" font-size="20" font-weight="normal" fill="#222222">3</text>
<line x1="1259.20" y1="545.00" x2="1259.20" y2="554.00" stroke="#263746" stroke-width="1.8" opacity="1.0"/>
<text x="1259.20" y="576.00" text-anchor="middle" font-size="20" font-weight="normal" fill="#222222">5</text>
<line x1="1353.09" y1="545.00" x2="1353.09" y2="554.00" stroke="#263746" stroke-width="1.8" opacity="1.0"/>
<text x="1353.09" y="576.00" text-anchor="middle" font-size="20" font-weight="normal" fill="#222222">10</text>
<line x1="1446.98" y1="545.00" x2="1446.98" y2="554.00" stroke="#263746" stroke-width="1.8" opacity="1.0"/>
<text x="1446.98" y="576.00" text-anchor="middle" font-size="20" font-weight="normal" fill="#222222">20</text>
<line x1="1571.11" y1="545.00" x2="1571.11" y2="554.00" stroke="#263746" stroke-width="1.8" opacity="1.0"/>
<text x="1571.11" y="576.00" text-anchor="middle" font-size="20" font-weight="normal" fill="#222222">50</text>
<line x1="1665.00" y1="545.00" x2="1665.00" y2="554.00" stroke="#263746" stroke-width="1.8" opacity="1.0"/>
<text x="1665.00" y="576.00" text-anchor="middle" font-size="20" font-weight="normal" fill="#222222">100</text>
<line x1="1181.00" y1="535.11" x2="1190.00" y2="535.11" stroke="#263746" stroke-width="1.8" opacity="1.0"/>
<text x="1174.00" y="542.11" text-anchor="end" font-size="20" font-weight="normal" fill="#222222">-0.6</text>
<line x1="1181.00" y1="436.26" x2="1190.00" y2="436.26" stroke="#263746" stroke-width="1.8" opacity="1.0"/>
<text x="1174.00" y="443.26" text-anchor="end" font-size="20" font-weight="normal" fill="#222222">-0.4</text>
<line x1="1181.00" y1="337.41" x2="1190.00" y2="337.41" stroke="#263746" stroke-width="1.8" opacity="1.0"/>
<text x="1174.00" y="344.41" text-anchor="end" font-size="20" font-weight="normal" fill="#222222">-0.2</text>
<line x1="1181.00" y1="238.56" x2="1190.00" y2="238.56" stroke="#263746" stroke-width="1.8" opacity="1.0"/>
<text x="1174.00" y="245.56" text-anchor="end" font-size="20" font-weight="normal" fill="#222222">0.0</text>
<line x1="1181.00" y1="139.71" x2="1190.00" y2="139.71" stroke="#263746" stroke-width="1.8" opacity="1.0"/>
<text x="1174.00" y="146.71" text-anchor="end" font-size="20" font-weight="normal" fill="#222222">0.2</text>
<text x="1427.50" y="612.00" text-anchor="middle" font-size="22" font-weight="normal" fill="#222222">Retained candidates, R</text>
<text x="1113.00" y="330.00" text-anchor="middle" font-size="22" font-weight="normal" fill="#222222" transform="rotate(-90 1113.0 330.0)">Current - comparator oracle regret (0.001 units)</text>
<line x1="1190.00" y1="238.56" x2="1665.00" y2="238.56" stroke="#555555" stroke-width="1.8" opacity="1.0"/>
<polyline points="1190.00,272.38 1259.20,229.43 1353.09,283.83 1446.98,339.35 1571.11,404.41 1665.00,461.08" stroke="#0072B2" stroke-width="3.2" fill="none" opacity="1.0" stroke-linejoin="round" stroke-linecap="round"/>
<circle cx="1190.00" cy="272.38" r="6.0" stroke="#0072B2" stroke-width="2.4" fill="#0072B2"/>
<circle cx="1259.20" cy="229.43" r="6.0" stroke="#0072B2" stroke-width="2.4" fill="#0072B2"/>
<circle cx="1353.09" cy="283.83" r="6.0" stroke="#0072B2" stroke-width="2.4" fill="#0072B2"/>
<circle cx="1446.98" cy="339.35" r="6.0" stroke="#0072B2" stroke-width="2.4" fill="#0072B2"/>
<circle cx="1571.11" cy="404.41" r="6.0" stroke="#0072B2" stroke-width="2.4" fill="#0072B2"/>
<circle cx="1665.00" cy="461.08" r="6.0" stroke="#0072B2" stroke-width="2.4" fill="#0072B2"/>
<polyline points="1190.00,202.22 1259.20,307.03 1353.09,219.16 1446.98,216.14 1571.11,238.46 1665.00,278.15" stroke="#777777" stroke-width="3.2" fill="none" opacity="1.0" stroke-linejoin="round" stroke-linecap="round"/>
<rect x="1184.20" y="196.42" width="11.60" height="11.60" stroke="#777777" stroke-width="2.2" fill="#777777"/>
<rect x="1253.40" y="301.23" width="11.60" height="11.60" stroke="#777777" stroke-width="2.2" fill="#777777"/>
<rect x="1347.29" y="213.36" width="11.60" height="11.60" stroke="#777777" stroke-width="2.2" fill="#777777"/>
<rect x="1441.18" y="210.34" width="11.60" height="11.60" stroke="#777777" stroke-width="2.2" fill="#777777"/>
<rect x="1565.31" y="232.66" width="11.60" height="11.60" stroke="#777777" stroke-width="2.2" fill="#777777"/>
<rect x="1659.20" y="272.35" width="11.60" height="11.60" stroke="#777777" stroke-width="2.2" fill="#777777"/>
<polyline points="1190.00,202.22 1259.20,245.82 1353.09,180.17 1446.98,164.38 1571.11,169.34 1665.00,199.31" stroke="#E69F00" stroke-width="3.2" fill="none" opacity="1.0" stroke-linejoin="round" stroke-linecap="round"/>
<polygon points="1190.00,195.22 1197.00,202.22 1190.00,209.22 1183.00,202.22" stroke="#E69F00" stroke-width="2.2" fill="#E69F00"/>
<polygon points="1259.20,238.82 1266.20,245.82 1259.20,252.82 1252.20,245.82" stroke="#E69F00" stroke-width="2.2" fill="#E69F00"/>
<polygon points="1353.09,173.17 1360.09,180.17 1353.09,187.17 1346.09,180.17" stroke="#E69F00" stroke-width="2.2" fill="#E69F00"/>
<polygon points="1446.98,157.38 1453.98,164.38 1446.98,171.38 1439.98,164.38" stroke="#E69F00" stroke-width="2.2" fill="#E69F00"/>
<polygon points="1571.11,162.34 1578.11,169.34 1571.11,176.34 1564.11,169.34" stroke="#E69F00" stroke-width="2.2" fill="#E69F00"/>
<polygon points="1665.00,192.31 1672.00,199.31 1665.00,206.31 1658.00,199.31" stroke="#E69F00" stroke-width="2.2" fill="#E69F00"/>
<line x1="1242.00" y1="89.00" x2="1270.00" y2="89.00" stroke="#0072B2" stroke-width="3" opacity="1.0"/>
<circle cx="1256.00" cy="89.00" r="5.5" stroke="#0072B2" stroke-width="2.4" fill="#0072B2"/>
<text x="1280.00" y="95.00" text-anchor="start" font-size="17" font-weight="normal" fill="#222222">Highest score</text>
<line x1="1242.00" y1="111.00" x2="1270.00" y2="111.00" stroke="#777777" stroke-width="3" opacity="1.0"/>
<rect x="1251.00" y="106.00" width="10.00" height="10.00" stroke="#777777" stroke-width="2.2" fill="#777777"/>
<text x="1280.00" y="117.00" text-anchor="start" font-size="17" font-weight="normal" fill="#222222">Legacy top-3 medoid</text>
<line x1="1242.00" y1="133.00" x2="1270.00" y2="133.00" stroke="#E69F00" stroke-width="3" opacity="1.0"/>
<polygon points="1256.00,127.00 1262.00,133.00 1256.00,139.00 1250.00,133.00" stroke="#E69F00" stroke-width="2.2" fill="#E69F00"/>
<text x="1280.00" y="139.00" text-anchor="start" font-size="17" font-weight="normal" fill="#222222">Full-bank medoid</text>
</g>
</svg>
